{"title":"Gotham S03E01 1080p WEB-DL HEVC DD5.1 x265","uid":15874551,"size":765013864,"categoryP":"video","categoryS":"hd___tv_shows","magnet":"?xt=urn:btih:1fdc256ec3bbfb2035bd78fecae48f11645a19a1&amp;dn=Gotham+S03E01+1080p+WEB-DL+HEVC+DD5.1+x265&amp;tr=udp%3A%2F%2Ftracker.leechers-paradise.org%3A6969&amp;tr=udp%3A%2F%2Fzer0day.ch%3A1337&amp;tr=udp%3A%2F%2Fopen.demonii.com%3A1337&amp;tr=udp%3A%2F%2Ftracker.coppersurfer.tk%3A6969&amp;tr=udp%3A%2F%2Fexodus.desync.com%3A6969","seeders":21,"leechers":0,"uploader":"nayhtut","files":1,"time":1474481264,"description":"[Screenshots Gallery Link]\r\n\r\n[http://postimg.org/gallery/1nyoz5nwu]\r\n\r\n\r\nSource: Gotham S03E01 1080p WEB-DL DD5.1 H264-NTb (1.7 GB)\r\n\r\n \r\nComplete name : Gotham.S03E01.1080p.WEB-DL.HEVC.DD5.1.x265.mkv\r\nFormat                                   : Matroska\r\nFormat version                           : Version 4 / Version 2\r\nFile size                                : 730 MiB\r\nDuration                                 : 44mn 7s\r\nOverall bit rate                         : 2 311 Kbps\r\nWriting application                      : Lavf57.25.100\r\nWriting library                          : Lavf57.25.100\r\n\r\nVideo\r\n\r\nID                                       : 1\r\nFormat                                   : V_MPEGH/ISO/HEVC\r\nCodec ID                                 : V_MPEGH/ISO/HEVC\r\nDuration                                 : 44mn 7s\r\nBit rate                                 : 1 881 Kbps\r\nWidth                                    : 1 916 pixels\r\nHeight                                   : 1 072 pixels\r\nDisplay aspect ratio                     : 16:9\r\nFrame rate                               : 25.000 fps\r\nBits/(Pixel*Frame)                       : 0.037\r\nStream size                              : 594 MiB (81%)\r\nWriting library                          : Lavc57.48.101 libx265\r\nLanguage                                 : English\r\nDefault                                  : Yes\r\nForced                                   : No\r\nDURATION                                 : 00:44:07.891000000\r\n\r\nAudio\r\n\r\nID                                       : 2\r\nFormat                                   : AC-3\r\nFormat/Info                              : Audio Coding 3\r\nMode extension                           : CM (complete main)\r\nFormat settings, Endianness              : Big\r\nCodec ID                                 : A_AC3\r\nDuration                                 : 44mn 7s\r\nBit rate mode                            : Constant\r\nBit rate                                 : 384 Kbps\r\nChannel(s)                               : 6 channels\r\nChannel positions                        : Front: L C R, Side: L R, LFE\r\nSampling rate                            : 48.0 KHz\r\nBit depth                                : 16 bits\r\nCompression mode                         : Lossy\r\nStream size                              : 121 MiB (17%)\r\nWriting library                          : Lavc57.24.102 ac3\r\nLanguage                                 : English\r\nDefault                                  : Yes\r\nForced                                   : No\r\nDURATION                                 : 00:44:07.935000000\r\n\r\nText\r\n\r\nID                                       : 3\r\nFormat                                   : ASS\r\nCodec ID                                 : S_TEXT/ASS\r\nCodec ID/Info                            : Advanced Sub Station Alpha\r\nLanguage                                 : English\r\nDefault                                  : Yes","torrent":{"xt":"urn:btih:1fdc256ec3bbfb2035bd78fecae48f11645a19a1","amp;dn":"Gotham+S03E01+1080p+WEB-DL+HEVC+DD5.1+x265","amp;tr":["udp%3A%2F%2Ftracker.leechers-paradise.org%3A6969","udp%3A%2F%2Fzer0day.ch%3A1337","udp%3A%2F%2Fopen.demonii.com%3A1337","udp%3A%2F%2Ftracker.coppersurfer.tk%3A6969","udp%3A%2F%2Fexodus.desync.com%3A6969"],"infoHash":"1fdc256ec3bbfb2035bd78fecae48f11645a19a1","infoHashBuffer":{"type":"Buffer","data":[31,220,37,110,195,187,251,32,53,189,120,254,202,228,143,17,100,90,25,161]},"announce":[],"urlList":[]}}